<?xml version="1.0" encoding="UTF-8" standalone="no"?>
<svg width="255px" height="120px" viewBox="0 0 255 120" version="1.1" xmlns="http://www.w3.org/2000/svg" xmlns:xlink="http://www.w3.org/1999/xlink" xmlns:sketch="http://www.bohemiancoding.com/sketch/ns">
    <title>Slice 1</title>
    <description>Created with Sketch (http://www.bohemiancoding.com/sketch)</description>
    <defs></defs>
    <g id="Page-1" stroke="none" stroke-width="1" fill="none" fill-rule="evenodd" sketch:type="MSPage">
        <g id="bee" sketch:type="MSLayerGroup" transform="translate(-22.000000, -63.000000)">
            <g id="Page-1" sketch:type="MSShapeGroup">
                <g id="bee" transform="translate(144.650913, 107.614773) rotate(20.000000) translate(-144.650913, -107.614773) translate(15.650913, 40.114773)">
                    <g id="Group-3">
                        <g id="Clip-2">
                            <path d="M0,-0.135 L257.575,-0.135 L257.575,135 L0,135 L0,-0.135" id="path-1"></path>
                        </g>
                        <path d="M242.6475,32.5562 C243.3415,32.4502 243.7205,32.0332 243.6445,31.2702 C243.5635,30.4522 242.6165,29.5712 241.8765,29.6692 C241.1315,29.7682 240.8435,30.3702 240.8105,31.0072 C240.7695,31.7702 241.8185,32.6162 242.6475,32.5562 M242.6165,23.4322 C242.0645,23.4852 241.7515,23.8232 241.5965,24.3022 C241.1145,25.7922 242.6055,27.6182 244.1665,27.4632 C245.5235,27.3282 246.0535,26.3042 245.3675,25.1222 C244.7525,24.0662 243.6075,23.8642 242.6165,23.4322 M232.2815,76.9562 C231.6195,76.1902 230.9095,75.9662 230.2395,75.7582 C228.9405,75.3572 228.1535,74.4472 228.0285,73.2112 C227.9065,72.0022 227.2465,71.3892 226.3805,70.7552 C223.2285,68.4442 219.9555,66.2652 217.0165,63.7032 C214.5735,61.5742 211.8255,60.0222 209.0875,58.4012 C207.9515,57.7282 207.1005,58.1562 207.0045,59.5032 C206.8465,61.7302 206.7515,63.9632 206.7305,66.1952 C206.7095,68.5062 206.8505,68.6332 209.2105,68.4862 C212.6905,68.2682 215.8045,69.3062 218.7265,71.0852 C219.4725,71.5392 220.2985,71.8912 220.7635,72.7032 C222.1035,75.0432 224.0605,77.0412 224.7325,79.7482 C224.9235,80.5202 225.4645,80.6402 225.9885,80.4352 C228.1985,79.5722 230.4695,78.7942 232.2815,76.9562 M252.2825,56.4192 C254.3865,52.8492 255.4775,49.1382 255.8165,45.1942 C255.9765,43.3282 255.9475,43.4162 254.0285,43.1152 C244.5295,41.6242 236.9945,37.4842 233.6735,27.7812 C233.3495,26.8332 232.8345,26.5312 231.8605,26.9302 C230.6005,27.4472 229.6305,28.3682 228.4215,29.0942 C228.7265,29.8862 229.8865,30.1472 229.5755,31.1152 C229.2145,32.2352 229.8105,33.1382 230.1805,34.0852 C231.4655,37.3712 233.4255,40.3132 235.2435,43.2902 C237.9005,47.6442 241.5485,51.0462 246.5015,52.8302 C248.6035,53.5882 250.5395,54.6912 252.2825,56.4192 M240.5165,71.9312 C242.0315,70.6612 243.2335,69.6422 244.2855,68.4392 C245.4065,67.1562 245.4615,67.1642 243.9155,66.5372 C243.4915,66.3662 243.2195,66.1002 243.1045,65.7432 C242.7805,64.7412 241.9195,64.2872 241.1855,63.6882 C240.2615,62.9342 239.3495,62.1642 238.4595,61.3712 C234.7375,58.0622 232.1185,53.8232 229.0015,50.0092 C226.2855,46.6852 223.8455,43.1432 220.8375,40.0442 C220.0895,39.2732 219.1635,38.8972 218.3885,38.2492 C217.9715,37.8992 217.7605,38.0612 217.4315,38.3982 C215.2105,40.6662 213.5865,43.3312 211.9535,46.1442 C212.9995,46.4252 213.6975,46.7542 214.4055,47.3632 C217.5695,50.0842 220.0155,53.4522 222.8915,56.4262 C225.5465,59.1712 227.8575,62.2652 231.0735,64.4372 C233.5825,66.1312 236.1605,67.7162 238.8365,69.1242 C239.9205,69.6942 240.6675,70.3502 240.5165,71.9312 M213.3885,37.5692 C214.3405,37.1132 214.4165,36.3702 214.5575,35.6822 C215.3645,31.7752 215.5525,27.8032 215.8635,23.8382 C216.1235,20.5322 215.3495,17.3452 215.0895,14.1012 C214.7315,9.6212 213.0365,5.8242 209.7935,2.6942 C206.9905,-0.0108 202.4475,0.9172 200.9845,4.4992 C199.6695,7.7202 199.9105,11.0562 200.1225,14.3952 C200.3625,18.1752 202.1555,21.3932 203.8915,24.6252 C204.7985,26.3152 206.0135,27.7612 207.3315,29.1582 C209.7135,31.6852 211.6015,34.6052 213.3885,37.5692 M212.4235,39.5532 C211.9175,38.0302 211.3485,36.7922 210.4845,35.5982 C208.5115,32.8722 206.0975,30.5992 203.5935,28.4192 C199.8035,25.1192 195.7125,22.2622 191.2325,19.9182 C188.8325,18.6632 186.3995,18.2592 183.8495,18.5942 C181.2755,18.9322 179.0755,20.4582 179.2825,23.7012 C179.3235,24.3372 179.2635,24.9812 179.3175,25.6162 C179.5375,28.1722 179.8135,30.7142 181.8775,32.5992 C183.8465,34.3972 185.9975,35.8662 188.6855,36.3542 C193.9175,37.3052 199.1365,38.3322 204.3875,39.1582 C206.9415,39.5592 209.5215,40.2482 212.4235,39.5532 M213.1755,41.6782 C207.6855,41.4452 202.8895,40.2082 198.0165,39.4682 C194.3235,38.9072 190.6295,38.3702 187.0505,37.2782 C182.4265,35.8652 178.2135,31.6502 178.1605,26.1332 C178.1475,24.7882 178.0765,23.4512 178.3985,22.0882 C178.8935,19.9912 180.1435,18.7642 182.1025,18.1072 C185.4105,16.9982 188.5335,17.5222 191.5765,19.0852 C194.2745,20.4712 196.9015,21.9692 199.4235,23.6552 C200.3245,24.2572 201.3035,24.7392 202.7095,25.5392 C201.7005,23.2742 200.9225,21.4852 200.1095,19.7132 C197.6795,14.4222 198.1775,9.0782 199.5465,3.6212 C200.1545,1.2022 204.9005,-0.7738 207.1185,0.0592 C208.3925,0.5372 209.6535,1.0182 210.6375,2.0202 C212.9965,4.4202 215.2565,6.9612 216.1795,10.2392 C216.8615,12.6582 217.2205,15.2332 217.2755,17.7492 C217.4175,24.3652 217.1855,30.9762 215.4955,37.7042 C217.3775,36.8912 218.2405,35.3072 219.4335,34.1532 C223.1895,30.5192 227.2795,27.3562 231.9935,25.1192 C233.6805,24.3192 235.6555,24.1272 237.4965,23.6462 C238.1115,23.4862 238.8795,23.4712 239.3015,23.0852 C241.4845,21.0912 243.7325,21.8132 245.9585,22.8342 C247.6775,23.6242 249.5205,24.0202 251.1805,25.0792 C254.2935,27.0672 255.9245,29.8702 256.9175,33.2892 C257.8125,36.3732 257.6475,39.4902 257.2815,42.5602 C256.7915,46.6652 256.1875,50.7662 254.6555,54.6842 C252.7865,59.4622 250.6745,63.9512 246.9615,67.7342 C241.4145,73.3872 235.0005,77.6772 227.9445,81.0422 C224.0535,82.8982 219.7795,83.6652 215.4615,83.7972 C213.3865,83.8612 211.7605,84.5592 210.4185,86.0922 C209.8945,86.6882 209.3125,87.2422 208.7145,87.7642 C207.3855,88.9232 206.0895,90.0562 205.7385,91.9522 C205.6295,92.5332 205.3245,93.6642 204.4195,93.2402 C203.6735,92.8912 204.1905,91.9902 204.4475,91.3342 C205.4635,88.7472 206.6585,86.2352 207.1675,83.4532 C207.4325,82.0052 207.5225,80.6082 207.2235,79.1932 C206.1355,74.0352 205.2985,68.8622 205.4615,63.5542 C205.6015,59.0352 206.4595,54.7342 208.3715,50.6022 C209.7365,47.6482 211.0635,44.6852 213.1755,41.6782" id="Fill-1" fill="#221F20"></path>
                    </g>
                    <g id="Group-6">
                        <g id="Clip-5">
                            <path d="M0,-0.135 L257.575,-0.135 L257.575,135 L0,135 L0,-0.135" id="path-3"></path>
                        </g>
                        <path d="M74.584,41.0444 C76.898,38.5004 80.046,37.9444 83.14,37.3994 C84.146,37.2234 85.351,37.5344 86.038,39.1084 C81.744,37.9644 78.159,39.4104 74.584,41.0444" id="Fill-4" fill="#221F20"></path>
                    </g>
                    <g id="Group-9">
                        <g id="Clip-8">
                            <path d="M0,-0.135 L257.575,-0.135 L257.575,135 L0,135 L0,-0.135" id="path-5"></path>
                        </g>
                        <path d="M97.9395,40.8003 C100.9285,42.3823 102.3495,46.8593 101.5115,51.7623 C100.3965,49.8453 100.7735,47.8943 100.4195,46.1173 C100.0415,44.2113 98.7755,42.7533 97.9395,40.8003" id="Fill-7" fill="#221F20"></path>
                    </g>
                    <g id="Group-12">
                        <g id="Clip-11">
                            <path d="M0,-0.135 L257.575,-0.135 L257.575,135 L0,135 L0,-0.135" id="path-7"></path>
                        </g>
                        <path d="M34.6436,69.0459 C34.4636,68.9499 34.2296,68.8949 34.2156,68.8039 C34.1836,68.5949 34.1796,68.2529 34.3016,68.1709 C34.8246,67.8239 35.3656,67.4579 35.9556,67.2689 C37.8616,66.6589 39.6206,65.7969 41.1796,64.5349 C41.3616,64.3879 41.5656,64.2529 41.7816,64.1669 C42.1856,64.0059 42.5966,64.0559 42.8066,64.4599 C42.9786,64.7869 42.7276,65.0759 42.4666,65.2579 C41.6876,65.8019 40.9346,66.4159 40.0856,66.8229 C38.5186,67.5769 36.8916,68.2069 35.2856,68.8789 C35.0726,68.9679 34.8336,68.9979 34.6436,69.0459" id="Fill-10" fill="#221F20"></path>
                    </g>
                    <g id="Group-15">
                        <g id="Clip-14">
                            <path d="M0,-0.135 L257.575,-0.135 L257.575,135 L0,135 L0,-0.135" id="path-9"></path>
                        </g>
                        <path d="M97.2656,101.7085 C98.6756,104.3055 100.6816,106.4525 102.2826,108.8775 C102.4716,109.1645 102.6156,109.4235 102.3366,109.7045 C102.0696,109.9745 101.7476,109.9015 101.4576,109.7415 C101.2546,109.6295 101.0086,109.5095 100.9016,109.3235 C99.4936,106.8855 97.6866,104.6435 97.2656,101.7085" id="Fill-13" fill="#221F20"></path>
                    </g>
                    <g id="Group-18">
                        <g id="Clip-17">
                            <path d="M0,-0.135 L257.575,-0.135 L257.575,135 L0,135 L0,-0.135" id="path-11"></path>
                        </g>
                        <path d="M63.2461,48.1758 C60.7381,50.6948 58.1211,52.8068 54.8341,54.3078 C54.8071,53.4608 55.2391,53.3628 55.5381,53.1188 C57.3231,51.6668 59.2901,50.4408 60.8521,48.7088 C61.5651,47.9178 61.6301,47.9758 63.2461,48.1758" id="Fill-16" fill="#221F20"></path>
                    </g>
                    <g id="Group-21">
                        <g id="Clip-20">
                            <path d="M0,-0.135 L257.575,-0.135 L257.575,135 L0,135 L0,-0.135" id="path-13"></path>
                        </g>
                        <path d="M0,69.8081 C3.473,70.1961 6.443,71.5391 8.557,74.4391 C6.677,74.5561 5.841,72.7131 4.288,72.1541 C2.77,71.6061 1.525,70.4391 0,69.8081" id="Fill-19" fill="#221F20"></path>
                    </g>
                    <g id="Group-24">
                        <g id="Clip-23">
                            <path d="M0,-0.135 L257.575,-0.135 L257.575,135 L0,135 L0,-0.135" id="path-15"></path>
                        </g>
                        <path d="M96.8945,70.8364 L99.0685,59.9994 C99.2245,60.0304 99.3795,60.0624 99.5355,60.0944 C99.4685,63.8404 98.8685,67.4784 97.3795,70.9354 C97.2175,70.9014 97.0565,70.8694 96.8945,70.8364" id="Fill-22" fill="#221F20"></path>
                    </g>
                    <g id="Group-27">
                        <g id="Clip-26">
                            <path d="M0,-0.135 L257.575,-0.135 L257.575,135 L0,135 L0,-0.135" id="path-17"></path>
                        </g>
                        <path d="M125.4033,128.1548 C128.3223,127.7208 131.0313,128.1628 133.4103,129.9878 C133.6883,130.2018 133.8143,130.5128 133.5563,130.7868 C133.4273,130.9238 133.1363,130.9148 132.9153,130.9518 C132.8453,130.9638 132.7523,130.9258 132.6923,130.8798 C130.5283,129.2398 127.9343,128.8218 125.4033,128.1548" id="Fill-25" fill="#221F20"></path>
                    </g>
                    <g id="Group-30">
                        <g id="Clip-29">
                            <path d="M0,-0.135 L257.575,-0.135 L257.575,135 L0,135 L0,-0.135" id="path-19"></path>
                        </g>
                        <path d="M24.1289,74.2515 C21.0589,75.6105 17.7139,74.8285 14.5759,75.5105 C14.4589,74.9795 14.6489,74.6765 14.9699,74.6435 C18.0099,74.3225 21.0549,74.0375 24.0979,73.7425 C24.1079,73.9115 24.1179,74.0815 24.1289,74.2515" id="Fill-28" fill="#221F20"></path>
                    </g>
                    <g id="Group-33">
                        <g id="Clip-32">
                            <path d="M0,-0.135 L257.575,-0.135 L257.575,135 L0,135 L0,-0.135" id="path-21"></path>
                        </g>
                        <path d="M95.0586,91.8682 C93.3876,89.2072 93.4086,86.2882 93.7746,83.3332 C93.8076,83.0652 94.1016,82.7702 94.4926,82.9032 C94.7216,82.9812 94.8906,83.1422 94.8246,83.4242 C94.1566,86.2582 94.9456,89.0282 95.0586,91.8682" id="Fill-31" fill="#221F20"></path>
                    </g>
                    <g id="Group-36">
                        <g id="Clip-35">
                            <path d="M0,-0.135 L257.575,-0.135 L257.575,135 L0,135 L0,-0.135" id="path-23"></path>
                        </g>
                        <path d="M170.3721,132.4609 C167.5841,133.9249 164.5611,134.1939 161.1601,134.2709 C162.6531,132.9449 164.3481,133.2999 165.7581,133.0179 C167.2451,132.7189 168.7021,131.7909 170.3721,132.4609" id="Fill-34" fill="#221F20"></path>
                    </g>
                    <g id="Group-39">
                        <g id="Clip-38">
                            <path d="M0,-0.135 L257.575,-0.135 L257.575,135 L0,135 L0,-0.135" id="path-25"></path>
                        </g>
                        <path d="M199.9248,98.8765 C199.8488,100.8935 198.0318,103.6095 195.6858,105.3335 C196.7978,103.1645 197.6638,100.8425 199.9248,98.8765" id="Fill-37" fill="#221F20"></path>
                    </g>
                    <g id="Group-42">
                        <g id="Clip-41">
                            <path d="M0,-0.135 L257.575,-0.135 L257.575,135 L0,135 L0,-0.135" id="path-27"></path>
                        </g>
                        <path d="M181.6885,123.9077 C181.2095,126.3427 179.5105,127.6547 177.4915,128.6767 C177.2615,128.7927 177.0315,128.8247 176.8505,128.6207 C176.6895,128.4377 176.5655,128.1287 176.8185,128.0087 C178.8065,127.0627 179.7685,124.9497 181.6885,123.9077" id="Fill-40" fill="#221F20"></path>
                    </g>
                    <g id="Group-45">
                        <g id="Clip-44">
                            <path d="M0,-0.135 L257.575,-0.135 L257.575,135 L0,135 L0,-0.135" id="path-29"></path>
                        </g>
                        <path d="M149.8691,134.8555 C148.8451,135.2505 148.0031,134.7445 147.1241,134.4335 C146.1511,134.0875 145.1991,133.6785 144.2191,133.3565 C143.3651,133.0765 142.3371,133.3775 141.2001,132.3565 C144.5901,132.5495 147.3121,133.3605 149.8691,134.8555" id="Fill-43" fill="#221F20"></path>
                    </g>
                    <g id="Group-48">
                        <g id="Clip-47">
                            <path d="M0,-0.135 L257.575,-0.135 L257.575,135 L0,135 L0,-0.135" id="path-31"></path>
                        </g>
                        <path d="M187.0098,116.7778 C187.0668,115.0658 188.3118,113.9328 188.8188,112.4688 C188.9058,112.2188 189.2158,112.2268 189.4468,112.2988 C189.9218,112.4488 190.0288,112.8778 189.9198,113.2568 C189.4728,114.8218 188.5098,116.0058 187.0098,116.7778" id="Fill-46" fill="#221F20"></path>
                    </g>
                    <g id="Group-51">
                        <g id="Clip-50">
                            <path d="M0,-0.135 L257.575,-0.135 L257.575,135 L0,135 L0,-0.135" id="path-33"></path>
                        </g>
                        <path d="M108.2627,117.2515 C109.5697,117.5625 112.8477,119.5125 113.2907,120.2825 C113.3937,120.4615 113.4497,120.7665 113.3667,120.9325 C113.1877,121.2905 112.8477,121.1765 112.5537,121.0455 C111.6217,120.6305 109.3297,118.6005 108.2627,117.2515" id="Fill-49" fill="#221F20"></path>
                    </g>
                    <g id="Group-54">
                        <g id="Clip-53">
                            <path d="M0,-0.135 L257.575,-0.135 L257.575,135 L0,135 L0,-0.135" id="path-35"></path>
                        </g>
                        <path d="M212.4238,39.5527 C209.5218,40.2487 206.9418,39.5587 204.3878,39.1577 C199.1368,38.3327 193.9168,37.3047 188.6858,36.3547 C185.9968,35.8657 183.8468,34.3977 181.8778,32.5987 C179.8138,30.7137 179.5368,28.1727 179.3178,25.6157 C179.2638,24.9807 179.3228,24.3377 179.2818,23.7007 C179.0748,20.4587 181.2758,18.9317 183.8498,18.5937 C186.3998,18.2587 188.8318,18.6627 191.2328,19.9187 C195.7128,22.2617 199.8038,25.1187 203.5938,28.4187 C206.0978,30.5997 208.5118,32.8717 210.4848,35.5977 C211.3488,36.7927 211.9168,38.0307 212.4238,39.5527" id="Fill-52" fill="#FEFEFE"></path>
                    </g>
                    <g id="Group-57">
                        <g id="Clip-56">
                            <path d="M0,-0.135 L257.575,-0.135 L257.575,135 L0,135 L0,-0.135" id="path-37"></path>
                        </g>
                        <path d="M213.3887,37.5693 C211.6017,34.6053 209.7137,31.6853 207.3307,29.1573 C206.0137,27.7603 204.7987,26.3153 203.8917,24.6253 C202.1557,21.3933 200.3627,18.1753 200.1217,14.3953 C199.9097,11.0563 199.6697,7.7193 200.9847,4.4993 C202.4477,0.9173 206.9907,-0.0117 209.7927,2.6943 C213.0357,5.8243 214.7317,9.6213 215.0897,14.1013 C215.3497,17.3453 216.1227,20.5323 215.8637,23.8383 C215.5527,27.8023 215.3647,31.7753 214.5577,35.6823 C214.4157,36.3703 214.3407,37.1133 213.3887,37.5693" id="Fill-55" fill="#FEFEFE"></path>
                    </g>
                    <g id="Group-60">
                        <g id="Clip-59">
                            <path d="M0,-0.135 L257.575,-0.135 L257.575,135 L0,135 L0,-0.135" id="path-39"></path>
                        </g>
                        <path d="M240.5166,71.9316 C240.6666,70.3506 239.9206,69.6936 238.8366,69.1236 C236.1606,67.7156 233.5816,66.1316 231.0736,64.4366 C227.8576,62.2646 225.5466,59.1706 222.8916,56.4266 C220.0156,53.4526 217.5696,50.0836 214.4056,47.3636 C213.6976,46.7546 212.9986,46.4246 211.9536,46.1436 C213.5866,43.3306 215.2106,40.6666 217.4316,38.3986 C217.7606,38.0616 217.9716,37.8986 218.3886,38.2486 C219.1626,38.8966 220.0896,39.2736 220.8376,40.0446 C223.8456,43.1426 226.2856,46.6846 229.0016,50.0096 C232.1186,53.8236 234.7376,58.0616 238.4586,61.3716 C239.3496,62.1636 240.2616,62.9336 241.1856,63.6876 C241.9196,64.2866 242.7806,64.7416 243.1046,65.7436 C243.2196,66.1006 243.4916,66.3656 243.9146,66.5376 C245.4616,67.1636 245.4066,67.1566 244.2856,68.4396 C243.2336,69.6426 242.0316,70.6606 240.5166,71.9316" id="Fill-58" fill="#E5CD67"></path>
                    </g>
                    <g id="Group-63">
                        <g id="Clip-62">
                            <path d="M0,-0.135 L257.575,-0.135 L257.575,135 L0,135 L0,-0.135" id="path-41"></path>
                        </g>
                        <path d="M252.2822,56.4194 C250.5392,54.6914 248.6032,53.5884 246.5012,52.8304 C241.5492,51.0454 237.9002,47.6444 235.2432,43.2904 C233.4262,40.3134 231.4662,37.3714 230.1802,34.0854 C229.8102,33.1374 229.2152,32.2344 229.5752,31.1144 C229.8862,30.1474 228.7262,29.8854 228.4222,29.0944 C229.6312,28.3674 230.6002,27.4464 231.8602,26.9304 C232.8342,26.5304 233.3492,26.8334 233.6742,27.7804 C236.9942,37.4844 244.5292,41.6244 254.0282,43.1154 C255.9472,43.4164 255.9762,43.3284 255.8162,45.1944 C255.4772,49.1374 254.3862,52.8494 252.2822,56.4194" id="Fill-61" fill="#E5CD67"></path>
                    </g>
                    <g id="Group-66">
                        <g id="Clip-65">
                            <path d="M0,-0.135 L257.575,-0.135 L257.575,135 L0,135 L0,-0.135" id="path-43"></path>
                        </g>
                        <path d="M232.2812,76.9565 C230.4692,78.7935 228.1982,79.5725 225.9882,80.4355 C225.4652,80.6405 224.9242,80.5205 224.7322,79.7485 C224.0602,77.0415 222.1032,75.0435 220.7632,72.7035 C220.2992,71.8915 219.4722,71.5395 218.7262,71.0845 C215.8042,69.3065 212.6902,68.2685 209.2112,68.4855 C206.8502,68.6335 206.7092,68.5065 206.7302,66.1955 C206.7512,63.9635 206.8462,61.7295 207.0052,59.5035 C207.1002,58.1565 207.9512,57.7275 209.0882,58.4005 C211.8252,60.0215 214.5732,61.5745 217.0162,63.7035 C219.9552,66.2655 223.2282,68.4445 226.3812,70.7555 C227.2462,71.3895 227.9062,72.0025 228.0282,73.2115 C228.1532,74.4475 228.9402,75.3565 230.2392,75.7585 C230.9092,75.9655 231.6192,76.1905 232.2812,76.9565" id="Fill-64" fill="#E5CD67"></path>
                    </g>
                </g>
            </g>
        </g>
    </g>
</svg>