<?xml version="1.0" encoding="UTF-8" standalone="no"?>
<svg width="24px" height="48px" viewBox="0 0 24 48" version="1.1" xmlns="http://www.w3.org/2000/svg" xmlns:xlink="http://www.w3.org/1999/xlink" xmlns:sketch="http://www.bohemiancoding.com/sketch/ns">
    <title>gallery-nav-icons</title>
    <description>Created with Sketch (http://www.bohemiancoding.com/sketch)</description>
    <defs></defs>
    <g id="Page-1" stroke="none" stroke-width="1" fill="none" fill-rule="evenodd" sketch:type="MSPage">
        <circle d="M12,23 C18.0751325,23 23,18.0751325 23,12 C23,5.92486745 18.0751325,1 12,1 C5.92486745,1 1,5.92486745 1,12 C1,18.0751325 5.92486745,23 12,23 Z M12,23" id="Oval-3" stroke="#B2BFCA" stroke-width="4" fill="#FFFFFF" sketch:type="MSShapeGroup" cx="12" cy="12" r="11"></circle>
        <circle d="M12,47 C18.0751325,47 23,42.0751325 23,36 C23,29.9248675 18.0751325,25 12,25 C5.92486745,25 1,29.9248675 1,36 C1,42.0751325 5.92486745,47 12,47 Z M12,47" id="Oval-3" stroke="#B2BFCA" stroke-width="4" fill="#DCE0E5" sketch:type="MSShapeGroup" cx="12" cy="36" r="11"></circle>
    </g>
</svg>