<?xml version="1.0" encoding="utf-8"?>
<!-- Generator: Adobe Illustrator 16.0.0, SVG Export Plug-In . SVG Version: 6.00 Build 0)  -->
<!DOCTYPE svg PUBLIC "-//W3C//DTD SVG 1.1//EN" "http://www.w3.org/Graphics/SVG/1.1/DTD/svg11.dtd">
<svg version="1.1" id="Layer_1" xmlns="http://www.w3.org/2000/svg" xmlns:xlink="http://www.w3.org/1999/xlink" x="0px" y="0px"
	 width="437px" height="155px" viewBox="-30 0 437 155" enable-background="new -30 0 437 155" xml:space="preserve">
<g id="b_x2F_w_badge_x5F_drop_shadow" display="none">
	<g display="inline">
		<g>
			<g>
				
					<image overflow="visible" opacity="0.69" enable-background="new    " width="169" height="168" xlink:href="73C33B6773508749.png"  transform="matrix(0.997 0 0 0.997 165.5557 207.25)">
				</image>
				<g>
					<circle cx="247.609" cy="288.168" r="71.635"/>
				</g>
			</g>
			
				<radialGradient id="SVGID_1_" cx="1200.5303" cy="224.0068" r="142.9525" gradientTransform="matrix(-0.5076 0.8616 -0.8616 -0.5076 1014.6887 -687.2193)" gradientUnits="userSpaceOnUse">
				<stop  offset="0.7" style="stop-color:#000000"/>
				<stop  offset="0.7679" style="stop-color:#030303"/>
				<stop  offset="0.8088" style="stop-color:#0B0B0B"/>
				<stop  offset="0.8425" style="stop-color:#191919"/>
				<stop  offset="0.8723" style="stop-color:#2E2E2E"/>
				<stop  offset="0.8996" style="stop-color:#484848"/>
				<stop  offset="0.925" style="stop-color:#686868"/>
				<stop  offset="0.9489" style="stop-color:#8F8F8F"/>
				<stop  offset="0.9717" style="stop-color:#BBBBBB"/>
				<stop  offset="0.9928" style="stop-color:#EDEDED"/>
				<stop  offset="1" style="stop-color:#FFFFFF"/>
			</radialGradient>
			<circle fill="url(#SVGID_1_)" cx="248.611" cy="288.854" r="68.746"/>
			<defs>
				<filter id="Adobe_OpacityMaskFilter" filterUnits="userSpaceOnUse" x="177.578" y="218.69" width="128.76" height="120.601">
					<feColorMatrix  type="matrix" values="1 0 0 0 0  0 1 0 0 0  0 0 1 0 0  0 0 0 1 0"/>
				</filter>
			</defs>
			<mask maskUnits="userSpaceOnUse" x="177.578" y="218.69" width="128.76" height="120.601" id="SVGID_2_">
				<g filter="url(#Adobe_OpacityMaskFilter)">
					
						<linearGradient id="SVGID_3_" gradientUnits="userSpaceOnUse" x1="95.8057" y1="-649.1558" x2="95.8057" y2="-766.3931" gradientTransform="matrix(0.8836 -0.4684 0.4684 0.8836 488.8248 949.2539)">
						<stop  offset="0" style="stop-color:#000000"/>
						<stop  offset="0.2481" style="stop-color:#020202"/>
						<stop  offset="0.3852" style="stop-color:#0A0A0A"/>
						<stop  offset="0.4953" style="stop-color:#181818"/>
						<stop  offset="0.591" style="stop-color:#2C2C2C"/>
						<stop  offset="0.6774" style="stop-color:#454545"/>
						<stop  offset="0.7571" style="stop-color:#646464"/>
						<stop  offset="0.8317" style="stop-color:#8A8A8A"/>
						<stop  offset="0.9022" style="stop-color:#B5B5B5"/>
						<stop  offset="0.9671" style="stop-color:#E4E4E4"/>
						<stop  offset="1" style="stop-color:#FFFFFF"/>
					</linearGradient>
					<path fill="url(#SVGID_3_)" d="M300.174,248.139c15.162,28.604,1.391,65.607-30.764,82.648
						c-32.148,17.041-70.501,7.666-85.665-20.938c-15.167-28.61-1.394-65.615,30.756-82.656
						C246.654,210.152,285.01,219.527,300.174,248.139z"/>
					
						<linearGradient id="SVGID_4_" gradientUnits="userSpaceOnUse" x1="95.8057" y1="-649.1558" x2="95.8057" y2="-766.3931" gradientTransform="matrix(0.8836 -0.4684 0.4684 0.8836 488.8248 949.2539)">
						<stop  offset="0" style="stop-color:#000000"/>
						<stop  offset="0.2481" style="stop-color:#020202"/>
						<stop  offset="0.3852" style="stop-color:#0A0A0A"/>
						<stop  offset="0.4953" style="stop-color:#181818"/>
						<stop  offset="0.591" style="stop-color:#2C2C2C"/>
						<stop  offset="0.6774" style="stop-color:#454545"/>
						<stop  offset="0.7571" style="stop-color:#646464"/>
						<stop  offset="0.8317" style="stop-color:#8A8A8A"/>
						<stop  offset="0.9022" style="stop-color:#B5B5B5"/>
						<stop  offset="0.9671" style="stop-color:#E4E4E4"/>
						<stop  offset="1" style="stop-color:#FFFFFF"/>
					</linearGradient>
					<path fill="url(#SVGID_4_)" d="M300.174,248.139c15.162,28.604,1.391,65.607-30.764,82.648
						c-32.148,17.041-70.501,7.666-85.665-20.938c-15.167-28.61-1.394-65.615,30.756-82.656
						C246.654,210.152,285.01,219.527,300.174,248.139z"/>
				</g>
			</mask>
			
				<linearGradient id="SVGID_5_" gradientUnits="userSpaceOnUse" x1="-912.3315" y1="727.5264" x2="-912.3315" y2="550.9106" gradientTransform="matrix(0.8873 -0.4612 0.4612 0.8873 736.2678 -748.1898)">
				<stop  offset="0.2582" style="stop-color:#404040"/>
				<stop  offset="0.2638" style="stop-color:#3B3B3B"/>
				<stop  offset="0.2947" style="stop-color:#252525"/>
				<stop  offset="0.3311" style="stop-color:#141414"/>
				<stop  offset="0.3762" style="stop-color:#090909"/>
				<stop  offset="0.4396" style="stop-color:#020202"/>
				<stop  offset="0.6154" style="stop-color:#000000"/>
			</linearGradient>
			<path mask="url(#SVGID_2_)" fill="url(#SVGID_5_)" d="M300.174,248.139c15.162,28.604,1.391,65.607-30.764,82.648
				c-32.148,17.041-70.501,7.666-85.665-20.938c-15.167-28.61-1.394-65.615,30.756-82.656
				C246.654,210.152,285.01,219.527,300.174,248.139z"/>
			<defs>
				<filter id="Adobe_OpacityMaskFilter_1_" filterUnits="userSpaceOnUse" x="183.668" y="220.354" width="100.27" height="85.893">
					<feColorMatrix  type="matrix" values="1 0 0 0 0  0 1 0 0 0  0 0 1 0 0  0 0 0 1 0"/>
				</filter>
			</defs>
			<mask maskUnits="userSpaceOnUse" x="183.668" y="220.354" width="100.27" height="85.893" id="SVGID_6_">
				<g filter="url(#Adobe_OpacityMaskFilter_1_)">
					
						<linearGradient id="SVGID_7_" gradientUnits="userSpaceOnUse" x1="95.9487" y1="-685.6685" x2="95.9487" y2="-765.2397" gradientTransform="matrix(0.8836 -0.4684 0.4684 0.8836 488.8248 949.2539)">
						<stop  offset="0" style="stop-color:#000000"/>
						<stop  offset="0.2481" style="stop-color:#020202"/>
						<stop  offset="0.3852" style="stop-color:#0A0A0A"/>
						<stop  offset="0.4953" style="stop-color:#181818"/>
						<stop  offset="0.591" style="stop-color:#2C2C2C"/>
						<stop  offset="0.6774" style="stop-color:#454545"/>
						<stop  offset="0.7571" style="stop-color:#646464"/>
						<stop  offset="0.8317" style="stop-color:#8A8A8A"/>
						<stop  offset="0.9022" style="stop-color:#B5B5B5"/>
						<stop  offset="0.9671" style="stop-color:#E4E4E4"/>
						<stop  offset="1" style="stop-color:#FFFFFF"/>
					</linearGradient>
					<path fill="url(#SVGID_7_)" d="M280.332,238.639c10.293,19.416-2.197,46.196-27.895,59.816
						c-25.699,13.621-54.872,8.922-65.164-10.491c-10.291-19.419,2.199-46.198,27.895-59.819
						C240.867,214.525,270.041,219.225,280.332,238.639z"/>
					
						<linearGradient id="SVGID_8_" gradientUnits="userSpaceOnUse" x1="95.9487" y1="-685.6685" x2="95.9487" y2="-765.2397" gradientTransform="matrix(0.8836 -0.4684 0.4684 0.8836 488.8248 949.2539)">
						<stop  offset="0" style="stop-color:#000000"/>
						<stop  offset="0.2481" style="stop-color:#020202"/>
						<stop  offset="0.3852" style="stop-color:#0A0A0A"/>
						<stop  offset="0.4953" style="stop-color:#181818"/>
						<stop  offset="0.591" style="stop-color:#2C2C2C"/>
						<stop  offset="0.6774" style="stop-color:#454545"/>
						<stop  offset="0.7571" style="stop-color:#646464"/>
						<stop  offset="0.8317" style="stop-color:#8A8A8A"/>
						<stop  offset="0.9022" style="stop-color:#B5B5B5"/>
						<stop  offset="0.9671" style="stop-color:#E4E4E4"/>
						<stop  offset="1" style="stop-color:#FFFFFF"/>
					</linearGradient>
					<path fill="url(#SVGID_8_)" d="M280.332,238.639c10.293,19.416-2.197,46.196-27.895,59.816
						c-25.699,13.621-54.872,8.922-65.164-10.491c-10.291-19.419,2.199-46.198,27.895-59.819
						C240.867,214.525,270.041,219.225,280.332,238.639z"/>
				</g>
			</mask>
			
				<linearGradient id="SVGID_9_" gradientUnits="userSpaceOnUse" x1="741.3896" y1="30.2832" x2="678.5337" y2="-52.832" gradientTransform="matrix(0.9824 0.1866 -0.1866 0.9824 -471.9471 129.4218)">
				<stop  offset="0.4011" style="stop-color:#000000"/>
				<stop  offset="0.427" style="stop-color:#282828"/>
				<stop  offset="0.4606" style="stop-color:#545454"/>
				<stop  offset="0.4978" style="stop-color:#7D7D7D"/>
				<stop  offset="0.5374" style="stop-color:#A0A0A0"/>
				<stop  offset="0.5804" style="stop-color:#BEBEBE"/>
				<stop  offset="0.6277" style="stop-color:#D6D6D6"/>
				<stop  offset="0.6812" style="stop-color:#E8E8E8"/>
				<stop  offset="0.7444" style="stop-color:#F5F5F5"/>
				<stop  offset="0.8269" style="stop-color:#FDFDFD"/>
				<stop  offset="1" style="stop-color:#FFFFFF"/>
			</linearGradient>
			<path mask="url(#SVGID_6_)" fill="url(#SVGID_9_)" d="M280.332,238.639c10.293,19.416-2.197,46.196-27.895,59.816
				c-25.699,13.621-54.872,8.922-65.164-10.491c-10.291-19.419,2.199-46.198,27.895-59.819
				C240.867,214.525,270.041,219.225,280.332,238.639z"/>
		</g>
		<path fill="#FFFFFF" d="M254.902,248.264c0,0-10.58,0-21.67,0c-17.778,0-32.402,12.416-32.402,30.828
			c0,15.482,9.316,26.539,23.232,28.65v21.537h28.957v-20.698h4.021c4.688-0.458,7.875-3.565,7.922-7.917v-11.973h7.89
			L254.902,248.264z M249.229,282.975c-3.918,0-7.092-3.176-7.092-7.093c0-3.916,3.174-7.091,7.092-7.091
			c3.916,0,7.092,3.175,7.092,7.091C256.32,279.799,253.145,282.975,249.229,282.975z M279.152,248.264h-11.698l17.78,40.43h-8.102
			v10.722c0.021,6.505-2.695,9.28-11.529,9.167v20.697h11.593v-20.697h3.797c3.366,0.091,7.924-2.645,7.983-7.956v-11.933h7.888
			L279.152,248.264z"/>
	</g>
</g>
<g id="b_x2F_w_badge_x5F_no_drop_shadow" display="none">
	<g display="inline">
		<circle cx="247.609" cy="288.168" r="71.654"/>
		
			<radialGradient id="SVGID_10_" cx="1200.5322" cy="224.0059" r="142.9523" gradientTransform="matrix(-0.5076 0.8616 -0.8616 -0.5076 1014.6887 -687.2193)" gradientUnits="userSpaceOnUse">
			<stop  offset="0.7" style="stop-color:#000000"/>
			<stop  offset="0.7679" style="stop-color:#030303"/>
			<stop  offset="0.8088" style="stop-color:#0B0B0B"/>
			<stop  offset="0.8425" style="stop-color:#191919"/>
			<stop  offset="0.8723" style="stop-color:#2E2E2E"/>
			<stop  offset="0.8996" style="stop-color:#484848"/>
			<stop  offset="0.925" style="stop-color:#686868"/>
			<stop  offset="0.9489" style="stop-color:#8F8F8F"/>
			<stop  offset="0.9717" style="stop-color:#BBBBBB"/>
			<stop  offset="0.9928" style="stop-color:#EDEDED"/>
			<stop  offset="1" style="stop-color:#FFFFFF"/>
		</radialGradient>
		<path fill="url(#SVGID_10_)" d="M213.714,348.084c-32.712-19.271-43.607-61.415-24.333-94.127
			c19.271-32.712,61.416-43.605,94.127-24.332c32.714,19.271,43.606,61.414,24.333,94.127
			C288.566,356.467,246.424,367.357,213.714,348.084z"/>
		<defs>
			<filter id="Adobe_OpacityMaskFilter_2_" filterUnits="userSpaceOnUse" x="177.578" y="218.69" width="128.76" height="120.601">
				<feColorMatrix  type="matrix" values="1 0 0 0 0  0 1 0 0 0  0 0 1 0 0  0 0 0 1 0"/>
			</filter>
		</defs>
		<mask maskUnits="userSpaceOnUse" x="177.578" y="218.69" width="128.76" height="120.601" id="SVGID_11_">
			<g filter="url(#Adobe_OpacityMaskFilter_2_)">
				
					<linearGradient id="SVGID_12_" gradientUnits="userSpaceOnUse" x1="95.8062" y1="-649.1558" x2="95.8061" y2="-766.3911" gradientTransform="matrix(0.8836 -0.4684 0.4684 0.8836 488.8248 949.2539)">
					<stop  offset="0" style="stop-color:#000000"/>
					<stop  offset="0.2481" style="stop-color:#020202"/>
					<stop  offset="0.3852" style="stop-color:#0A0A0A"/>
					<stop  offset="0.4953" style="stop-color:#181818"/>
					<stop  offset="0.591" style="stop-color:#2C2C2C"/>
					<stop  offset="0.6774" style="stop-color:#454545"/>
					<stop  offset="0.7571" style="stop-color:#646464"/>
					<stop  offset="0.8317" style="stop-color:#8A8A8A"/>
					<stop  offset="0.9022" style="stop-color:#B5B5B5"/>
					<stop  offset="0.9671" style="stop-color:#E4E4E4"/>
					<stop  offset="1" style="stop-color:#FFFFFF"/>
				</linearGradient>
				<path fill="url(#SVGID_12_)" d="M300.174,248.139c15.162,28.604,1.391,65.607-30.764,82.648
					c-32.148,17.041-70.501,7.666-85.665-20.939c-15.167-28.609-1.394-65.613,30.756-82.652
					C246.654,210.152,285.01,219.525,300.174,248.139z"/>
				
					<linearGradient id="SVGID_13_" gradientUnits="userSpaceOnUse" x1="95.8062" y1="-649.1558" x2="95.8061" y2="-766.3911" gradientTransform="matrix(0.8836 -0.4684 0.4684 0.8836 488.8248 949.2539)">
					<stop  offset="0" style="stop-color:#000000"/>
					<stop  offset="0.2481" style="stop-color:#020202"/>
					<stop  offset="0.3852" style="stop-color:#0A0A0A"/>
					<stop  offset="0.4953" style="stop-color:#181818"/>
					<stop  offset="0.591" style="stop-color:#2C2C2C"/>
					<stop  offset="0.6774" style="stop-color:#454545"/>
					<stop  offset="0.7571" style="stop-color:#646464"/>
					<stop  offset="0.8317" style="stop-color:#8A8A8A"/>
					<stop  offset="0.9022" style="stop-color:#B5B5B5"/>
					<stop  offset="0.9671" style="stop-color:#E4E4E4"/>
					<stop  offset="1" style="stop-color:#FFFFFF"/>
				</linearGradient>
				<path fill="url(#SVGID_13_)" d="M300.174,248.139c15.162,28.604,1.391,65.607-30.764,82.648
					c-32.148,17.041-70.501,7.666-85.665-20.939c-15.167-28.609-1.394-65.613,30.756-82.652
					C246.654,210.152,285.01,219.525,300.174,248.139z"/>
			</g>
		</mask>
		
			<linearGradient id="SVGID_14_" gradientUnits="userSpaceOnUse" x1="-912.3311" y1="727.5264" x2="-912.3311" y2="550.9136" gradientTransform="matrix(0.8873 -0.4612 0.4612 0.8873 736.2678 -748.1898)">
			<stop  offset="0.2582" style="stop-color:#404040"/>
			<stop  offset="0.2638" style="stop-color:#3B3B3B"/>
			<stop  offset="0.2947" style="stop-color:#252525"/>
			<stop  offset="0.3311" style="stop-color:#141414"/>
			<stop  offset="0.3762" style="stop-color:#090909"/>
			<stop  offset="0.4396" style="stop-color:#020202"/>
			<stop  offset="0.6154" style="stop-color:#000000"/>
		</linearGradient>
		<path mask="url(#SVGID_11_)" fill="url(#SVGID_14_)" d="M300.174,248.139c15.162,28.604,1.391,65.607-30.764,82.648
			c-32.148,17.041-70.501,7.666-85.665-20.939c-15.167-28.609-1.394-65.613,30.756-82.652
			C246.654,210.152,285.01,219.525,300.174,248.139z"/>
		<defs>
			<filter id="Adobe_OpacityMaskFilter_3_" filterUnits="userSpaceOnUse" x="183.669" y="220.354" width="100.269" height="85.894">
				<feColorMatrix  type="matrix" values="1 0 0 0 0  0 1 0 0 0  0 0 1 0 0  0 0 0 1 0"/>
			</filter>
		</defs>
		<mask maskUnits="userSpaceOnUse" x="183.669" y="220.354" width="100.269" height="85.894" id="SVGID_15_">
			<g filter="url(#Adobe_OpacityMaskFilter_3_)">
				
					<linearGradient id="SVGID_16_" gradientUnits="userSpaceOnUse" x1="95.9497" y1="-685.6685" x2="95.9497" y2="-765.2397" gradientTransform="matrix(0.8836 -0.4684 0.4684 0.8836 488.8248 949.2539)">
					<stop  offset="0" style="stop-color:#000000"/>
					<stop  offset="0.2481" style="stop-color:#020202"/>
					<stop  offset="0.3852" style="stop-color:#0A0A0A"/>
					<stop  offset="0.4953" style="stop-color:#181818"/>
					<stop  offset="0.591" style="stop-color:#2C2C2C"/>
					<stop  offset="0.6774" style="stop-color:#454545"/>
					<stop  offset="0.7571" style="stop-color:#646464"/>
					<stop  offset="0.8317" style="stop-color:#8A8A8A"/>
					<stop  offset="0.9022" style="stop-color:#B5B5B5"/>
					<stop  offset="0.9671" style="stop-color:#E4E4E4"/>
					<stop  offset="1" style="stop-color:#FFFFFF"/>
				</linearGradient>
				<path fill="url(#SVGID_16_)" d="M280.332,238.639c10.293,19.416-2.197,46.196-27.895,59.816
					c-25.699,13.621-54.871,8.922-65.163-10.492c-10.291-19.418,2.199-46.197,27.895-59.818
					C240.867,214.525,270.041,219.223,280.332,238.639z"/>
				
					<linearGradient id="SVGID_17_" gradientUnits="userSpaceOnUse" x1="95.9497" y1="-685.6685" x2="95.9497" y2="-765.2397" gradientTransform="matrix(0.8836 -0.4684 0.4684 0.8836 488.8248 949.2539)">
					<stop  offset="0" style="stop-color:#000000"/>
					<stop  offset="0.2481" style="stop-color:#020202"/>
					<stop  offset="0.3852" style="stop-color:#0A0A0A"/>
					<stop  offset="0.4953" style="stop-color:#181818"/>
					<stop  offset="0.591" style="stop-color:#2C2C2C"/>
					<stop  offset="0.6774" style="stop-color:#454545"/>
					<stop  offset="0.7571" style="stop-color:#646464"/>
					<stop  offset="0.8317" style="stop-color:#8A8A8A"/>
					<stop  offset="0.9022" style="stop-color:#B5B5B5"/>
					<stop  offset="0.9671" style="stop-color:#E4E4E4"/>
					<stop  offset="1" style="stop-color:#FFFFFF"/>
				</linearGradient>
				<path fill="url(#SVGID_17_)" d="M280.332,238.639c10.293,19.416-2.197,46.196-27.895,59.816
					c-25.699,13.621-54.871,8.922-65.163-10.492c-10.291-19.418,2.199-46.197,27.895-59.818
					C240.867,214.525,270.041,219.223,280.332,238.639z"/>
			</g>
		</mask>
		
			<linearGradient id="SVGID_18_" gradientUnits="userSpaceOnUse" x1="741.3906" y1="30.2827" x2="678.5331" y2="-52.8345" gradientTransform="matrix(0.9824 0.1866 -0.1866 0.9824 -471.9471 129.4218)">
			<stop  offset="0.4011" style="stop-color:#000000"/>
			<stop  offset="0.427" style="stop-color:#282828"/>
			<stop  offset="0.4606" style="stop-color:#545454"/>
			<stop  offset="0.4978" style="stop-color:#7D7D7D"/>
			<stop  offset="0.5374" style="stop-color:#A0A0A0"/>
			<stop  offset="0.5804" style="stop-color:#BEBEBE"/>
			<stop  offset="0.6277" style="stop-color:#D6D6D6"/>
			<stop  offset="0.6812" style="stop-color:#E8E8E8"/>
			<stop  offset="0.7444" style="stop-color:#F5F5F5"/>
			<stop  offset="0.8269" style="stop-color:#FDFDFD"/>
			<stop  offset="1" style="stop-color:#FFFFFF"/>
		</linearGradient>
		<path mask="url(#SVGID_15_)" fill="url(#SVGID_18_)" d="M280.332,238.639c10.293,19.416-2.197,46.196-27.895,59.816
			c-25.699,13.621-54.871,8.922-65.163-10.492c-10.291-19.418,2.199-46.197,27.895-59.818
			C240.867,214.525,270.041,219.223,280.332,238.639z"/>
		<path fill="#FFFFFF" d="M254.904,248.264c0,0-10.581,0-21.672,0c-17.777,0-32.401,12.416-32.401,30.828
			c0,15.482,9.317,26.539,23.231,28.65v21.537h28.959v-20.697h4.02c4.688-0.459,7.875-3.566,7.922-7.918v-11.973h7.889
			L254.904,248.264z M249.23,282.975c-3.918,0-7.094-3.176-7.094-7.093c0-3.916,3.176-7.091,7.094-7.091
			c3.916,0,7.092,3.175,7.092,7.091C256.322,279.799,253.146,282.975,249.23,282.975z M279.154,248.264h-11.699l17.781,40.43h-8.103
			v10.722c0.021,6.506-2.694,9.28-11.528,9.168v20.696h11.592v-20.696h3.797c3.367,0.09,7.924-2.646,7.984-7.957v-11.933h7.887
			L279.154,248.264z"/>
	</g>
</g>
<g id="b_x2F_w_badge_flat">
	<circle cx="213.754" cy="77.5" r="71.654"/>
	<path fill="#FFFFFF" d="M221.048,37.596c0,0-10.581,0-21.673,0c-17.776,0-32.4,12.416-32.4,30.828
		c0,15.482,9.315,26.539,23.23,28.65v21.537h28.958V97.914h4.021c4.688-0.459,7.875-3.566,7.922-7.918V78.023h7.889L221.048,37.596z
		 M215.373,72.307c-3.918,0-7.093-3.176-7.093-7.093c0-3.916,3.175-7.091,7.093-7.091c3.916,0,7.094,3.175,7.094,7.091
		C222.466,69.131,219.289,72.307,215.373,72.307z M245.298,37.596h-11.699l17.779,40.43h-8.102v10.722
		c0.021,6.506-2.695,9.28-11.529,9.168v20.696h11.594V97.915h3.797c3.366,0.09,7.924-2.646,7.982-7.957V78.025h7.889L245.298,37.596
		z"/>
</g>
<g id="PBS_LearningMedia">
	<g>
		<g>
			<g>
				<g>
					<g>
						<path d="M305.095,64.331h-4.84v-5.992h16c8.688,0,13.66,4.479,13.66,11.521c0,7.176-5.204,11.541-13.43,11.541
							c-0.688,0.016-4.385,0.006-4.385,0.006v9.107h5.67v6.026h-17.579v-6.026h4.902L305.095,64.331L305.095,64.331z
							 M312.103,75.389c0,0,3.439,0,4.666,0c3.977,0,6.145-2.479,6.145-5.529c0-3.163-2.279-5.536-6.145-5.536
							c-0.688,0-4.666,0-4.666,0V75.389z"/>
						<path d="M336.754,64.331h-4.396v-5.992h15.357c9.504,0,12.533,5.691,12.533,9.839c0,3.519-1.869,6.344-4.607,7.68
							c3.842,1.605,5.996,5.553,5.996,9.014c0,8.318-6.533,11.669-12.787,11.669h-17v-6.026h4.902L336.754,64.331L336.754,64.331z
							 M343.754,90.514c0,0,4.152,0,4.461,0c3.68,0,6.17-2.024,6.17-5.442c0-2.894-1.939-5.409-6.17-5.409c-1.473,0-4.461,0-4.461,0
							V90.514z M343.754,73.631h4.188c3.152,0,5.273-1.865,5.273-4.664c0-2.764-2.102-4.641-5.273-4.641c-1.291,0-4.188,0-4.188,0
							V73.631z"/>
						<path d="M384.463,64.323c-1.256-0.488-2.896-0.925-4.535-0.925c-4.684,0-6.182,2.713-6.182,4.828
							c0,2.767,1.787,3.578,4.008,4.174l4.055,1.142c4.973,1.409,10.475,3.253,10.475,11.115c0,7.213-4.344,12.474-13.949,12.474
							c-3.715,0-7.576-0.436-12.113-2.117V84.982h7.047v4.988c1.787,0.813,3.719,0.978,5.693,0.978c4.152,0,5.986-2.224,5.986-5.097
							c0-1.955-0.965-3.362-5.504-4.664l-3.715-1.086c-6.949-2.008-9.314-5.043-9.314-10.899c0-6.021,3.766-11.332,13.32-11.332
							c4.102,0,8.205,0.76,11.1,2.006v9.058h-6.371V64.323L384.463,64.323z"/>
					</g>
				</g>
			</g>
		</g>
	</g>
	<rect x="-17.809" y="66.1" fill="none" width="144" height="29.232"/>
	<text transform="matrix(1 0 0 1 -2.8271 90.1562)" font-family="'PBSExplorer-Bold'" font-size="33">Be more</text>
</g>
<g id="Layer_6" display="none">
	<g display="inline">
		
			<image overflow="visible" enable-background="new    " width="382" height="158" xlink:href="BeMore.png"  transform="matrix(1.2269 0 0 1.2269 156.9873 211.7412)">
		</image>
	</g>
</g>
<g id="Guides">
</g>
</svg>
