<?xml version="1.0" encoding="UTF-8" standalone="no"?>
<svg width="588px" height="144px" viewBox="0 0 588 144" version="1.1" xmlns="http://www.w3.org/2000/svg" xmlns:xlink="http://www.w3.org/1999/xlink" xmlns:sketch="http://www.bohemiancoding.com/sketch/ns">
    <title>PBSLM-Logo</title>
    <description>Created with Sketch (http://www.bohemiancoding.com/sketch)</description>
    <defs></defs>
    <g id="Page-1" stroke="none" stroke-width="1" fill="none" fill-rule="evenodd" sketch:type="MSPage">
        <g id="Vector-Smart-Object.ai" sketch:type="MSLayerGroup" transform="translate(0.000000, 1.000000)">
            <g id="Group-5" sketch:type="MSShapeGroup">
                <path d="M143.3071,71.3477 C143.3071,110.9217 111.2271,142.9997 71.6521,142.9997 C32.0801,142.9997 0.0001,110.9217 0.0001,71.3477 C0.0001,31.7757 32.0801,-0.3043 71.6521,-0.3043 C111.2271,-0.3043 143.3071,31.7757 143.3071,71.3477" id="Fill-1" fill="#000000"></path>
                <path d="M103.1978,31.4434 L91.4988,31.4434 L109.2798,71.8724 L101.1778,71.8724 L101.1778,82.5934 C101.1998,89.0994 98.4828,91.8754 89.6488,91.7614 L89.6488,112.4594 L101.2408,112.4594 L101.2408,91.7614 L105.0378,91.7614 C108.4048,91.8514 112.9618,89.1174 113.0218,83.8044 L113.0218,71.8724 L120.9088,71.8724 L103.1978,31.4434 Z M73.2738,66.1544 C69.3548,66.1544 66.1798,62.9784 66.1798,59.0614 C66.1798,55.1454 69.3548,51.9704 73.2738,51.9704 C77.1898,51.9704 80.3658,55.1454 80.3658,59.0614 C80.3658,62.9784 77.1898,66.1544 73.2738,66.1544 L73.2738,66.1544 Z M78.9478,31.4434 L57.2768,31.4434 C39.4978,31.4434 24.8738,43.8594 24.8738,62.2714 C24.8738,77.7544 34.1918,88.8104 48.1068,90.9224 L48.1068,112.4594 L77.0648,112.4594 L77.0648,91.7614 L81.0848,91.7614 C85.7718,91.3024 88.9598,88.1954 89.0068,83.8434 L89.0068,71.8724 L96.8948,71.8724 L78.9478,31.4434 Z" id="Fill-3" fill="#FFFFFF"></path>
            </g>
            <g id="Group-40" transform="translate(157.000000, 50.000000)" fill="#000000" sketch:type="MSShapeGroup">
                <path d="M12.0024,19.3955 L16.6684,19.3955 C20.6454,19.3955 22.8134,16.9175 22.8134,13.8665 C22.8134,10.7035 20.5314,8.3305 16.6684,8.3305 L12.0024,8.3305 L12.0024,19.3955 Z M4.9944,8.3375 L0.1544,8.3375 L0.1544,2.3455 L16.1544,2.3455 C24.8444,2.3455 29.8164,6.8265 29.8164,13.8665 C29.8164,21.0415 24.6114,25.4075 16.3874,25.4075 C15.6974,25.4215 12.0024,25.4125 12.0024,25.4125 L12.0024,34.5205 L17.6724,34.5205 L17.6724,40.5465 L0.0924,40.5465 L0.0924,34.5205 L4.9944,34.5205 L4.9944,8.3375 Z" id="Fill-6"></path>
                <path d="M43.6528,17.6387 L47.8398,17.6387 C50.9928,17.6387 53.1138,15.7737 53.1138,12.9747 C53.1138,10.2107 51.0138,8.3337 47.8398,8.3337 L43.6528,8.3337 L43.6528,17.6387 Z M43.6528,34.5207 L48.1138,34.5207 C51.7938,34.5207 54.2838,32.4957 54.2838,29.0777 C54.2838,26.1857 52.3438,23.6687 48.1138,23.6687 L43.6528,23.6687 L43.6528,34.5207 Z M36.6528,8.3377 L32.2568,8.3377 L32.2568,2.3457 L47.6138,2.3457 C57.1178,2.3457 60.1488,8.0367 60.1488,12.1837 C60.1488,15.7017 58.2778,18.5277 55.5398,19.8637 C59.3818,21.4697 61.5358,25.4157 61.5358,28.8767 C61.5358,37.1957 55.0028,40.5467 48.7488,40.5467 L31.7488,40.5467 L31.7488,34.5207 L36.6528,34.5207 L36.6528,8.3377 Z" id="Fill-8"></path>
                <path d="M84.3618,8.3301 C83.1078,7.8421 81.4668,7.4061 79.8268,7.4061 C75.1448,7.4061 73.6468,10.1181 73.6468,12.2341 C73.6468,15.0001 75.4338,15.8121 77.6528,16.4081 L81.7078,17.5491 C86.6798,18.9581 92.1818,20.8021 92.1818,28.6641 C92.1818,35.8771 87.8388,41.1381 78.2328,41.1381 C74.5178,41.1381 70.6548,40.7031 66.1178,39.0211 L66.1178,28.9901 L73.1648,28.9901 L73.1648,33.9781 C74.9518,34.7921 76.8828,34.9551 78.8598,34.9551 C83.0118,34.9551 84.8458,32.7321 84.8458,29.8581 C84.8458,27.9041 83.8818,26.4961 79.3418,25.1941 L75.6278,24.1091 C68.6778,22.1011 66.3128,19.0651 66.3128,13.2091 C66.3128,7.1891 70.0768,1.8771 79.6328,1.8771 C83.7348,1.8771 87.8388,2.6371 90.7328,3.8831 L90.7328,12.9391 L84.3618,12.9391 L84.3618,8.3301 Z" id="Fill-10"></path>
                <path d="M429.4868,16.3721 L429.4868,13.0601 L429.4318,13.0601 L428.1888,16.3721 L427.5508,16.3721 L426.3188,13.0821 L426.2638,13.0711 L426.2638,16.3721 L425.2848,16.3721 L425.2848,11.8391 L426.6818,11.8391 L427.8818,15.0301 L429.0688,11.8391 L430.4658,11.8391 L430.4658,16.3721 L429.4868,16.3721 Z M422.9528,12.7301 L422.9528,16.3721 L421.9728,16.3721 L421.9728,12.7301 L420.6198,12.7301 L420.6198,11.8391 L424.3048,11.8391 L424.3048,12.7301 L422.9528,12.7301 Z" id="Fill-12"></path>
                <path d="M129.9995,40.5557 L112.0425,40.5557 L112.0425,2.1557 L119.5565,2.1557 L119.5565,33.8707 L131.3805,33.8707 L129.9995,40.5557 Z" id="Fill-14"></path>
                <path d="M146.6289,18.6763 C146.1309,17.5163 145.3029,16.7983 143.9209,16.7983 C141.5459,16.7983 140.4409,18.5103 140.3849,23.1523 L147.1809,23.1523 C147.1809,21.2733 147.0709,19.7263 146.6289,18.6763 L146.6289,18.6763 Z M140.3849,28.4013 L140.3849,28.8983 C140.3849,30.3893 140.5509,31.8813 141.2139,33.0973 C141.9879,34.5333 143.3139,35.3623 145.0819,35.3623 C147.2919,35.3623 149.2809,34.3673 151.3249,32.5443 L154.3089,37.2963 C151.2699,40.0593 148.1759,41.2183 144.6399,41.2183 C137.0149,41.2183 132.7049,35.8603 132.7049,26.4673 C132.7049,21.6043 133.6999,17.9033 135.7439,15.2503 C137.6779,12.7643 140.4409,11.5493 143.7559,11.5493 C147.0159,11.5493 149.4469,12.5983 151.2149,14.4773 C153.5909,17.0743 154.5299,20.9973 154.5299,26.9083 L154.5299,28.4013 L140.3849,28.4013 Z" id="Fill-16"></path>
                <path d="M170.2759,28.29 C170.1099,28.235 169.9439,28.235 169.8889,28.235 C165.9659,28.235 164.6949,29.671 164.6949,32.103 C164.6949,34.147 165.6349,35.362 167.4029,35.362 C168.5629,35.362 169.8339,34.589 170.2759,33.649 L170.2759,28.29 Z M175.3029,41.661 C174.0329,41.163 172.5959,39.672 172.1539,38.567 C170.7179,40.059 168.6179,41.274 165.7449,41.274 C159.6679,41.274 157.4579,37.075 157.4579,32.324 C157.4579,26.743 161.7119,22.931 168.8949,22.931 C169.4469,22.931 169.7229,22.931 170.3309,22.986 L170.3309,20.886 C170.3309,19.561 170.2759,18.621 169.7789,18.068 C169.3919,17.571 168.7839,17.295 167.8449,17.295 C165.0819,17.295 162.5959,18.566 160.6069,20.334 L157.8439,15.361 C160.9939,13.151 164.8609,11.549 168.7839,11.549 C173.2039,11.549 176.2979,13.262 177.2379,16.521 C177.6249,17.848 177.6789,19.118 177.6789,21.329 L177.5689,31.661 C177.5689,34.147 177.8999,35.805 179.5029,36.91 L175.3029,41.661 Z" id="Fill-18"></path>
                <path d="M197.1274,19.063 C196.4084,18.621 195.8014,18.4 194.9724,18.4 C193.2044,18.4 191.5464,19.726 191.5464,21.384 L191.5464,40.556 L184.1974,40.556 L184.1974,20.279 C184.1974,17.129 183.8114,15.14 183.3694,12.985 L190.1654,11.604 C190.3864,12.322 190.7734,13.538 190.7734,14.864 L190.7734,15.14 C191.7684,13.151 193.7014,11.438 196.2424,11.438 C197.2924,11.438 198.1214,11.714 199.0054,12.157 L197.1274,19.063 Z" id="Fill-20"></path>
                <path d="M215.2495,40.5557 L215.2495,21.6047 C215.2495,19.7817 215.0285,19.0077 214.5865,18.5107 C214.1995,18.0137 213.5365,17.9577 212.8185,17.9577 C211.8795,17.9577 210.4985,18.5657 209.2275,19.9477 L209.2275,40.5557 L201.8785,40.5557 L201.8785,20.2787 C201.8785,17.1297 201.4915,15.1397 201.0505,12.9857 L207.8465,11.6037 C208.0665,12.2667 208.4535,13.4277 208.5095,14.6987 C210.0565,12.9307 212.9845,11.6597 215.8025,11.6597 C218.0125,11.6597 219.7255,12.3777 220.8305,13.5377 C222.1015,14.8637 222.5985,16.9087 222.5985,18.8427 L222.5985,40.5557 L215.2495,40.5557 Z" id="Fill-22"></path>
                <path d="M228.3989,40.5557 L228.3989,12.5987 L235.8019,11.7697 L235.8019,40.5557 L228.3989,40.5557 Z M231.9899,9.0627 C229.5589,9.0627 227.4599,7.0177 227.4599,4.5867 C227.4599,2.1557 229.5589,0.1117 232.1009,0.1117 C234.5869,0.1117 236.5759,2.1557 236.5759,4.5867 C236.5759,7.0177 234.5319,9.0627 231.9899,9.0627 L231.9899,9.0627 Z" id="Fill-24"></path>
                <path d="M255.7476,40.5557 L255.7476,21.6047 C255.7476,19.7817 255.5256,19.0077 255.0846,18.5107 C254.6976,18.0137 254.0346,17.9577 253.3156,17.9577 C252.3766,17.9577 250.9956,18.5657 249.7256,19.9477 L249.7256,40.5557 L242.3766,40.5557 L242.3766,20.2787 C242.3766,17.1297 241.9896,15.1397 241.5476,12.9857 L248.3436,11.6037 C248.5646,12.2667 248.9516,13.4277 249.0066,14.6987 C250.5536,12.9307 253.4816,11.6597 256.3006,11.6597 C258.5106,11.6597 260.2236,12.3777 261.3276,13.5377 C262.5986,14.8637 263.0966,16.9087 263.0966,18.8427 L263.0966,40.5557 L255.7476,40.5557 Z" id="Fill-26"></path>
                <path d="M278.3999,17.0186 C275.9689,17.0186 275.0859,18.8976 275.0859,21.1076 C275.0859,23.3176 275.9689,25.1406 278.3999,25.1406 C280.8319,25.1406 281.6599,23.2066 281.6599,21.0526 C281.6599,18.8426 280.8859,17.0186 278.3999,17.0186 M289.1739,17.8476 C288.7879,17.8476 288.4009,17.7926 288.0139,17.7366 C288.6219,18.8426 289.2849,20.2786 289.2849,21.5496 C289.2849,28.2346 283.9249,30.5006 278.0689,30.5006 C277.4609,30.5006 276.9089,30.5006 276.2999,30.4446 C276.0799,30.7216 275.5829,31.5506 275.5829,31.8816 C275.5829,32.8756 277.4059,32.8756 278.0689,32.8756 C279.5599,32.8756 281.1079,32.9866 282.5989,32.9866 C287.2409,32.9866 290.8319,35.9146 290.8319,40.7216 C290.8319,48.2906 285.1959,51.2196 278.2899,51.2196 C273.6489,51.2196 267.1289,49.7836 267.1289,43.9816 C267.1289,42.8216 267.2399,41.6616 267.4609,40.5556 L274.2009,40.5556 C274.0899,41.2746 274.0359,41.9926 274.0359,42.7106 C274.0359,45.3076 276.5219,45.6946 278.6219,45.6946 C281.0519,45.6946 283.4279,44.6996 283.4279,41.9366 C283.4279,39.0096 280.9969,38.8436 278.6759,38.8436 C277.2399,38.8436 275.7489,38.7876 274.3119,38.7876 C270.9969,38.7876 268.4549,37.4066 268.4549,33.8156 C268.4549,31.5506 270.0569,29.8926 272.0459,29.0086 C268.7869,27.4616 267.6809,24.6986 267.6809,21.2726 C267.6809,14.7536 272.7099,11.7146 278.7319,11.7146 C280.0029,11.7146 281.1629,11.9356 282.3789,12.3226 C283.2079,12.5986 284.0909,13.0956 284.9749,13.0956 C286.3569,13.0956 288.4569,12.8746 289.7269,12.2676 L291.8809,16.8526 C291.1079,17.4056 290.1689,17.8476 289.1739,17.8476" id="Fill-28"></path>
                <path d="M325.1968,40.5557 L324.2028,20.1127 C324.0928,17.5717 323.9818,12.4887 323.9818,12.3777 C323.9258,12.5987 323.0428,17.6267 322.5998,19.6157 L317.9038,40.5557 L310.9978,40.5557 L306.9088,20.4447 C306.4118,17.9577 305.4718,13.6487 305.4168,12.5987 C305.4168,12.9857 305.4168,18.3997 305.3058,20.5547 L304.3668,40.5557 L296.6868,40.5557 L299.6158,2.1557 L309.6158,2.1557 L313.5938,22.7097 C314.0368,24.9747 314.4238,27.9037 314.6988,30.1137 C314.9748,28.0137 315.3618,25.1967 315.8598,22.7647 L320.0588,2.1557 L329.8388,2.1557 L332.6558,40.5557 L325.1968,40.5557 Z" id="Fill-30"></path>
                <path d="M349.6177,18.6763 C349.1207,17.5163 348.2917,16.7983 346.9107,16.7983 C344.5347,16.7983 343.4297,18.5103 343.3747,23.1523 L350.1707,23.1523 C350.1707,21.2733 350.0597,19.7263 349.6177,18.6763 L349.6177,18.6763 Z M343.3747,28.4013 L343.3747,28.8983 C343.3747,30.3893 343.5397,31.8813 344.2027,33.0973 C344.9757,34.5333 346.3027,35.3623 348.0707,35.3623 C350.2807,35.3623 352.2697,34.3673 354.3137,32.5443 L357.2977,37.2963 C354.2587,40.0593 351.1647,41.2183 347.6287,41.2183 C340.0037,41.2183 335.6937,35.8603 335.6937,26.4673 C335.6937,21.6043 336.6887,17.9033 338.7327,15.2503 C340.6667,12.7643 343.4297,11.5493 346.7447,11.5493 C350.0047,11.5493 352.4347,12.5983 354.2037,14.4773 C356.5797,17.0743 357.5187,20.9973 357.5187,26.9083 L357.5187,28.4013 L343.3747,28.4013 Z" id="Fill-32"></path>
                <path d="M374.9204,19.0078 C374.4794,18.1238 373.4294,17.6268 372.2134,17.6268 C368.9534,17.6268 368.5664,21.8808 368.5664,26.5768 C368.5664,30.0578 368.7874,34.8648 372.1034,34.8648 C373.3184,34.8648 374.4794,34.3128 374.9204,33.3738 L374.9204,19.0078 Z M376.4124,40.5558 C376.1914,40.0588 376.0254,39.2298 375.9704,38.5118 C374.8104,40.0038 373.2634,41.1628 370.6104,41.1628 C364.2574,41.1628 360.6654,35.8598 360.6654,26.8538 C360.6654,19.5048 363.5944,11.6038 371.1084,11.6038 C372.6554,11.6038 374.3134,12.3218 375.1964,13.1508 C375.1424,12.8198 374.9204,10.5538 374.9204,8.7858 L374.9204,0.2778 L382.2694,1.3828 L382.2694,33.1528 C382.2694,36.1918 382.3794,38.6768 382.7664,40.5558 L376.4124,40.5558 Z" id="Fill-34"></path>
                <path d="M388.0698,40.5557 L388.0698,12.5987 L395.4738,11.7697 L395.4738,40.5557 L388.0698,40.5557 Z M391.6618,9.0627 C389.2298,9.0627 387.1308,7.0177 387.1308,4.5867 C387.1308,2.1557 389.2298,0.1117 391.7718,0.1117 C394.2578,0.1117 396.2478,2.1557 396.2478,4.5867 C396.2478,7.0177 394.2028,9.0627 391.6618,9.0627 L391.6618,9.0627 Z" id="Fill-36"></path>
                <path d="M411.8276,28.29 C411.6626,28.235 411.4966,28.235 411.4406,28.235 C407.5176,28.235 406.2476,29.671 406.2476,32.103 C406.2476,34.147 407.1866,35.362 408.9546,35.362 C410.1156,35.362 411.3866,34.589 411.8276,33.649 L411.8276,28.29 Z M416.8556,41.661 C415.5856,41.163 414.1486,39.672 413.7066,38.567 C412.2696,40.059 410.1706,41.274 407.2976,41.274 C401.2196,41.274 399.0096,37.075 399.0096,32.324 C399.0096,26.743 403.2646,22.931 410.4466,22.931 C410.9996,22.931 411.2756,22.931 411.8836,22.986 L411.8836,20.886 C411.8836,19.561 411.8276,18.621 411.3306,18.068 C410.9436,17.571 410.3366,17.295 409.3966,17.295 C406.6346,17.295 404.1476,18.566 402.1586,20.334 L399.3956,15.361 C402.5456,13.151 406.4136,11.549 410.3366,11.549 C414.7566,11.549 417.8496,13.262 418.7896,16.521 C419.1766,17.848 419.2316,19.118 419.2316,21.329 L419.1216,31.661 C419.1216,34.147 419.4526,35.805 421.0556,36.91 L416.8556,41.661 Z" id="Fill-38"></path>
            </g>
        </g>
    </g>
</svg>