<?xml version="1.0" encoding="UTF-8" standalone="no"?>
<svg width="48px" height="71px" viewBox="0 0 48 71" version="1.1" xmlns="http://www.w3.org/2000/svg" xmlns:xlink="http://www.w3.org/1999/xlink" xmlns:sketch="http://www.bohemiancoding.com/sketch/ns">
    <title>hand-drawn-arrow</title>
    <description>Created with Sketch (http://www.bohemiancoding.com/sketch)</description>
    <defs>
        <path id="path-1" d="M0,0.963285714 L76.4987143,0.963285714 L76.4987143,44 L0,44 L0,44 L0,0.963285714 L0,0.963285714 Z M0,0.963285714"></path>
        <mask id="mask-2" sketch:name="Clip 2" fill="white">
            <use xlink:href="#path-1"></use>
        </mask>
    </defs>
    <g id="Page-1" stroke="none" stroke-width="1" fill="none" fill-rule="evenodd" sketch:type="MSPage">
        <g id="Vector-Smart-Object.ai" sketch:type="MSLayerGroup" transform="translate(22.243181, 32.227214) scale(1, -1) rotate(-97.000000) translate(-22.243181, -32.227214) translate(-16.256819, 10.227214)">
            <use id="Clip-2" sketch:type="MSShapeGroup" xlink:href="#path-1"></use>
            <path d="M8.44957143,42.9803 L8.448,42.9803 L8.448,42.9803 L8.44957143,42.9803 L8.44957143,42.9803 Z M74.5155714,29.7897286 C74.0944286,29.2381571 73.6481429,28.7164429 73.1845714,28.2073 L73.2207143,28.5420143 L71.709,26.7065857 C68.7185714,23.8780143 65.1624286,21.5947286 61.8011429,19.0380143 L62.6858571,17.7258714 C65.4421429,19.3743 68.4467143,21.1830143 70.9767143,23.5888714 C68.1732857,9.54815714 55.7181429,3.27658571 41.8487143,2.5993 C32.4264286,2.16244286 22.4588571,4.4143 14.8185714,8.65244286 C7.17042857,12.8953 1.93442857,19.0490143 1.60442857,26.3891571 C1.38128571,31.3124429 3.333,36.8925857 8.448,42.9803 L7.23485714,44.0001571 C1.94385714,37.7128714 -0.229428571,31.7288714 0.0188571429,26.3137286 C0.906714286,10.0934429 22.5515714,0.158871429 41.9257143,1.01372857 C56.892,1.66587143 70.95,9.06572857 72.908,25.6647286 C73.4265714,26.1597286 73.9325714,26.6751571 74.4197143,27.2110143 C74.4967143,25.0015857 74.5957143,22.7937286 74.6931429,20.5921571 C74.7591429,19.2957286 74.8157143,18.0008714 74.8754286,16.7060143 C74.888,16.4435857 74.8974286,16.1811571 74.9131429,15.9140143 L76.4987143,16.0020143 C76.4782857,16.2644429 76.472,16.5158714 76.4562857,16.7751571 C76.395,18.0731571 76.3352857,19.3664429 76.2787143,20.6675857 C76.1467143,23.5558714 76.0225714,26.4425857 75.9361429,29.3293 L75.867,31.5497286 L75.867,31.5497286 L74.5155714,29.7897286 L74.5155714,29.7897286 Z M74.5155714,29.7897286" id="Fill-1" fill="#FF4747" sketch:type="MSShapeGroup" mask="url(#mask-2)"></path>
        </g>
    </g>
</svg>